#N canvas 0 22 604 381 10;
#X obj 21 17 inlet;
#X text 68 15 go;
#X obj 370 232 outlet;
#X text 419 231 done;
#X obj 21 314 outlet;
#X text 70 315 commands;
#X msg 370 74 bang;
#X msg 110 74 bang;
#X msg 21 121 bink 0.5 880 100;
#X obj 110 96 del 250;
#X msg 230 94 bang;
#X obj 230 116 del 250;
#X obj 110 145 random 4;
#X msg 110 214 bink 0.4 \$1 150;
#X obj 110 171 sel 0;
#X msg 138 192 1440;
#X msg 110 192 880;
#X obj 230 171 sel 0;
#X msg 230 192 880;
#X msg 230 214 bink 0.8 \$1 1000;
#X msg 258 192 5000;
#X obj 230 145 random 3;
#X obj 370 135 del 1000;
#X obj 365 9 r timemul;
#X obj 415 104 * 1000;
#X obj 269 86 * 250;
#X obj 149 73 * 250;
#X connect 0 0 6 0;
#X connect 0 0 8 0;
#X connect 0 0 7 0;
#X connect 0 0 10 0;
#X connect 6 0 22 0;
#X connect 7 0 9 0;
#X connect 8 0 4 0;
#X connect 9 0 12 0;
#X connect 10 0 11 0;
#X connect 11 0 21 0;
#X connect 12 0 14 0;
#X connect 13 0 4 0;
#X connect 14 0 16 0;
#X connect 14 1 15 0;
#X connect 15 0 13 0;
#X connect 16 0 13 0;
#X connect 17 0 18 0;
#X connect 17 1 20 0;
#X connect 18 0 19 0;
#X connect 19 0 4 0;
#X connect 20 0 19 0;
#X connect 21 0 17 0;
#X connect 22 0 2 0;
#X connect 23 0 24 0;
#X connect 23 0 25 0;
#X connect 23 0 26 0;
#X connect 24 0 22 1;
#X connect 25 0 11 1;
#X connect 26 0 9 1;
