#N canvas 0 22 450 310 10;
#X obj 21 17 inlet;
#X text 68 15 go;
#X obj 250 232 outlet;
#X text 299 231 done;
#X obj 250 136 del 5000;
#X obj 21 224 outlet;
#X text 70 225 commands;
#X msg 250 74 bang;
#X msg 21 175 bink 1 440 1000;
#X obj 335 39 r timemul;
#X obj 295 104 * 5000;
#X connect 0 0 7 0;
#X connect 0 0 8 0;
#X connect 4 0 2 0;
#X connect 7 0 4 0;
#X connect 8 0 5 0;
#X connect 9 0 10 0;
#X connect 10 0 4 1;
