#N canvas 0 22 493 356 10;
#X obj 21 17 inlet;
#X text 68 15 go;
#X obj 250 292 outlet;
#X text 299 291 done;
#X obj 21 284 outlet;
#X text 70 285 commands;
#X msg 250 74 bang;
#X msg 110 74 bang;
#X msg 21 125 bink 0.2 880 100;
#X obj 110 155 random 4;
#X msg 110 224 bink 0.4 \$1 150;
#X obj 110 181 sel 0;
#X msg 110 202 770;
#X msg 138 202 880;
#X obj 110 96 del 200;
#X obj 250 165 del 400;
#X obj 289 19 r timemul;
#X obj 289 134 * 400;
#X obj 149 74 * 200;
#X connect 0 0 6 0;
#X connect 0 0 8 0;
#X connect 0 0 7 0;
#X connect 6 0 15 0;
#X connect 7 0 14 0;
#X connect 8 0 4 0;
#X connect 9 0 11 0;
#X connect 10 0 4 0;
#X connect 11 0 12 0;
#X connect 11 1 13 0;
#X connect 12 0 10 0;
#X connect 13 0 10 0;
#X connect 14 0 9 0;
#X connect 15 0 2 0;
#X connect 16 0 17 0;
#X connect 16 0 18 0;
#X connect 17 0 15 1;
#X connect 18 0 14 1;
