#N canvas 146 63 571 589 10;
#X obj 42 -18 r osc_blip;
#X obj 42 103 unpack f f f;
#X obj 12 498 s~ blip_l;
#X obj 169 498 s~ blip_r;
#X obj 54 452 d-pan~ 0.5;
#X obj 29 432 *~;
#X msg 275 218 1;
#X msg 204 218 0;
#X obj 315 110 vsl 15 128 0 1 0 0 empty empty empty 0 -9 0 10 -262144
-1 -1 0 1;
#X obj 343 110 vsl 15 128 1 100 1 0 empty empty empty 0 -9 0 10 -262144
-1 -1 0 1;
#X obj 371 110 vsl 15 128 1 100 1 0 empty empty empty 0 -9 0 10 -262144
-1 -1 0 1;
#X obj 399 110 vsl 15 128 0 1 0 0 empty empty empty 0 -9 0 10 -262144
-1 -1 0 1;
#X obj 428 110 vsl 15 128 10 1000 1 0 empty empty empty 0 -9 0 10 -262144
-1 -1 0 1;
#X floatatom 309 248 5 0 0 0 - - -;
#X floatatom 338 261 5 0 0 0 - - -;
#X floatatom 366 244 5 0 0 0 - - -;
#X floatatom 393 261 5 0 0 0 - - -;
#X floatatom 437 250 5 0 0 0 - - -;
#X text 304 86 level;
#X text 346 86 A;
#X text 376 86 D;
#X text 403 86 S;
#X text 432 87 R;
#X obj 174 183 bng 15 250 50 0 empty empty empty 17 7 0 10 -262144
-1 -1;
#X msg 405 323 bang;
#X obj 300 322 d-lin-to-exp~;
#X obj 42 28 routeOSC /target /trigger;
#X obj 443 411 pink~;
#X obj 223 110 bng 15 250 50 0 empty empty empty 17 7 0 10 -262144
-1 -1;
#X obj 232 375 *~ 1;
#X obj 300 345 d-graph~ 0 1 10000;
#X obj 313 50 metro 500;
#X obj 320 25 bng 15 250 50 0 empty empty empty 17 7 0 10 -262144 -1
-1;
#X msg 347 23 stop;
#X obj -19 393 *~ 1;
#X obj 174 110 bang;
#X obj 174 154 del 35;
#X obj 24 388 *~ 0.2;
#X obj -23 332 osc~ 1920;
#X obj 23 362 phasor~ 3840.1;
#X obj 129 131 s blip-trigger;
#X obj -29 366 *~;
#X obj -18 127 f;
#X text 7 125 blip_count;
#X msg -24 222 bang;
#X obj 174 82 pipe 1;
#X msg -38 300 960;
#X obj -45 182 bng 15 250 50 0 empty empty empty 17 7 0 10 -262144
-1 -1;
#X obj 148 281 print;
#X obj 300 295 d-adsr4~ 7 8.5 1 5;
#X obj 86 74 moses 1;
#X obj -25 274 sel 0 1 2 3 4 5 6 7;
#X obj -17 151 t b b a;
#X obj 1 194 -;
#X obj -24 244 random 7;
#X msg 21 221 7;
#X msg -6 172 7;
#X msg -9 301 3840;
#X msg 31 302 3840;
#X obj 129 -10 r osc_blip_all;
#X floatatom 61 251 5 0 0 0 - - -;
#X floatatom 7 262 5 0 0 0 - - -;
#X msg 68 302 3840;
#X connect 0 0 26 0;
#X connect 1 2 4 1;
#X connect 4 0 2 0;
#X connect 4 1 3 0;
#X connect 5 0 4 0;
#X connect 6 0 24 0;
#X connect 6 0 49 0;
#X connect 7 0 49 0;
#X connect 8 0 13 0;
#X connect 8 0 29 1;
#X connect 9 0 14 0;
#X connect 9 0 49 1;
#X connect 10 0 15 0;
#X connect 10 0 49 2;
#X connect 11 0 16 0;
#X connect 11 0 49 3;
#X connect 12 0 17 0;
#X connect 12 0 49 4;
#X connect 23 0 7 0;
#X connect 24 0 30 1;
#X connect 25 0 29 0;
#X connect 25 0 30 0;
#X connect 26 0 1 0;
#X connect 26 1 45 0;
#X connect 26 1 50 0;
#X connect 28 0 35 0;
#X connect 29 0 5 1;
#X connect 31 0 35 0;
#X connect 32 0 31 0;
#X connect 33 0 31 0;
#X connect 34 0 5 0;
#X connect 35 0 6 0;
#X connect 35 0 36 0;
#X connect 36 0 23 0;
#X connect 38 0 34 0;
#X connect 38 0 41 0;
#X connect 39 0 37 0;
#X connect 41 0 34 0;
#X connect 42 0 52 0;
#X connect 44 0 54 0;
#X connect 45 0 35 0;
#X connect 46 0 38 0;
#X connect 49 0 25 0;
#X connect 50 0 62 0;
#X connect 50 0 55 0;
#X connect 50 1 42 0;
#X connect 51 0 46 0;
#X connect 51 1 57 0;
#X connect 51 2 58 0;
#X connect 51 3 62 0;
#X connect 51 4 62 0;
#X connect 51 5 62 0;
#X connect 51 6 62 0;
#X connect 51 7 62 0;
#X connect 52 0 47 0;
#X connect 52 0 44 0;
#X connect 52 1 56 0;
#X connect 52 2 53 1;
#X connect 52 2 60 0;
#X connect 53 0 54 1;
#X connect 54 0 51 0;
#X connect 54 0 61 0;
#X connect 55 0 54 1;
#X connect 56 0 53 0;
#X connect 57 0 38 0;
#X connect 58 0 38 0;
#X connect 59 0 26 0;
#X connect 62 0 38 0;
