#N canvas 573 169 535 448 10;
#X obj 43 26 r osc_chunks;
#X obj 51 386 d-pan~ 0.5;
#X text 399 100 total delay;
#X obj 325 100 unpack f f;
#X msg 36 144 bang;
#X msg 141 180 1;
#X msg 72 197 0;
#X obj 51 304 *~;
#X obj 40 60 routeOSC /trigger /setup;
#X text 147 100 x y width height power count;
#X obj 32 100 unpack f f f f f f;
#X obj 51 348 *~ 1;
#X obj 108 358 r \$0-pan;
#X obj 53 122 s \$0-pan;
#X obj 52 421 s~ chunks_l;
#X obj 203 424 s~ chunks_r;
#X obj 213 157 print;
#X obj 344 150 * 1000;
#X obj 342 179 * 0.8;
#X obj 71 173 del 10;
#X obj 95 279 *~;
#N canvas 0 22 475 404 tone 0;
#X obj 59 380 outlet~;
#X obj 60 353 osc~ 480;
#X obj 50 17 inlet;
#X obj 210 18 inlet;
#X obj 46 126 sel 0 1;
#X obj 46 94 random 2;
#X obj 64 211 spigot 0;
#X obj 134 211 spigot 0;
#X msg 84 186 1;
#X msg 116 186 0;
#X msg 158 186 0;
#X msg 191 186 1;
#X obj 64 322 * 80;
#X obj 63 281 + 4;
#X obj 144 291 + 1;
#X obj 134 331 * 80;
#X obj 211 77 f;
#X obj 137 238 t b;
#X obj 169 262 * 2;
#X obj 137 262 f 1;
#X obj 47 66 t b b;
#X msg 128 128 1;
#X obj 231 219 random 10;
#X obj 231 248 / 2;
#X connect 1 0 0 0;
#X connect 2 0 20 0;
#X connect 3 0 16 0;
#X connect 4 0 8 0;
#X connect 4 0 10 0;
#X connect 4 1 9 0;
#X connect 4 1 11 0;
#X connect 5 0 4 0;
#X connect 6 0 13 0;
#X connect 7 0 17 0;
#X connect 8 0 6 1;
#X connect 9 0 6 1;
#X connect 10 0 7 1;
#X connect 11 0 7 1;
#X connect 12 0 1 0;
#X connect 13 0 12 0;
#X connect 14 0 15 0;
#X connect 15 0 1 0;
#X connect 16 0 6 0;
#X connect 16 0 7 0;
#X connect 17 0 19 0;
#X connect 18 0 19 1;
#X connect 19 0 18 0;
#X connect 19 0 14 0;
#X connect 20 0 5 0;
#X connect 20 1 21 0;
#X connect 20 1 22 0;
#X connect 21 0 19 1;
#X connect 22 0 23 0;
#X connect 23 0 13 1;
#X connect 23 0 14 1;
#X restore 22 237 pd tone;
#X obj 116 252 d-adsr4~ 7 0 1 7;
#X connect 0 0 8 0;
#X connect 0 0 16 0;
#X connect 1 0 14 0;
#X connect 1 1 15 0;
#X connect 3 0 21 0;
#X connect 3 1 17 0;
#X connect 4 0 5 0;
#X connect 4 0 19 0;
#X connect 5 0 22 0;
#X connect 6 0 22 0;
#X connect 7 0 11 0;
#X connect 8 0 10 0;
#X connect 8 1 3 0;
#X connect 10 0 4 0;
#X connect 10 1 13 0;
#X connect 10 4 11 1;
#X connect 10 5 21 1;
#X connect 11 0 1 0;
#X connect 12 0 1 1;
#X connect 17 0 18 0;
#X connect 19 0 6 0;
#X connect 20 0 7 1;
#X connect 21 0 7 0;
#X connect 22 0 20 0;
#X connect 22 0 20 1;
