#N canvas 140 22 588 724 10;
#X obj 62 -10 r osc_delaunay;
#X obj 62 20 routeOSC /ping;
#X obj 62 52 unpack f f f;
#X text 137 184 level x y;
#X obj 62 656 s~ delaunay_l;
#X obj 183 656 s~ delaunay_r;
#X obj 183 610 *~ 10;
#X obj 62 606 *~ 10;
#X obj 62 476 d-reverb2-light~ 56 82;
#X obj 62 444 d-pan~;
#X msg 107 132 1;
#X obj 62 185 pack f f f;
#X obj 62 212 route 1 2 3 4 5 6 7 8;
#X obj 62 156 poly 8 1;
#X obj 62 335 ping;
#X obj 63 385 biquad~ 0.041825 0.712579 0.0823115 -0.164623 0.0823115
;
#X obj 272 335 ping;
#X obj 152 335 ping;
#X obj 92 335 ping;
#X obj 122 335 ping;
#X obj 182 335 ping;
#X obj 212 335 ping;
#X obj 242 335 ping;
#X obj 62 107 t f b;
#X obj 272 314 randpipe;
#X obj 242 294 randpipe;
#X obj 212 274 randpipe;
#X obj 182 314 randpipe;
#X obj 152 294 randpipe;
#X obj 122 274 randpipe;
#X obj 92 314 randpipe;
#X obj 62 294 randpipe;
#X connect 0 0 1 0;
#X connect 1 0 2 0;
#X connect 2 0 23 0;
#X connect 2 2 9 1;
#X connect 6 0 5 0;
#X connect 7 0 4 0;
#X connect 8 0 7 0;
#X connect 8 1 6 0;
#X connect 9 0 8 0;
#X connect 9 1 8 1;
#X connect 10 0 13 1;
#X connect 11 0 12 0;
#X connect 12 0 31 0;
#X connect 12 1 30 0;
#X connect 12 2 29 0;
#X connect 12 3 28 0;
#X connect 12 4 27 0;
#X connect 12 5 26 0;
#X connect 12 6 25 0;
#X connect 12 7 24 0;
#X connect 13 0 11 0;
#X connect 13 1 11 1;
#X connect 13 2 11 2;
#X connect 14 0 15 0;
#X connect 15 0 9 0;
#X connect 16 0 15 0;
#X connect 17 0 15 0;
#X connect 18 0 15 0;
#X connect 19 0 15 0;
#X connect 20 0 15 0;
#X connect 21 0 15 0;
#X connect 22 0 15 0;
#X connect 23 0 13 0;
#X connect 23 1 10 0;
#X connect 24 0 16 0;
#X connect 25 0 22 0;
#X connect 26 0 21 0;
#X connect 27 0 20 0;
#X connect 28 0 17 0;
#X connect 29 0 19 0;
#X connect 30 0 18 0;
#X connect 31 0 14 0;
