#N canvas 696 162 459 356 10;
#X obj 26 68 unpackOSC;
#X floatatom 122 51 5 0 0 0 - - -;
#X obj 26 192 s osc_blip;
#X obj 26 20 udpreceive 10001;
#X obj 85 225 s osc_delaunay;
#X obj 144 191 s osc_breath;
#X obj 223 213 s osc_chunks;
#X obj 270 188 s osc_blip_all;
#X obj 26 153 routeOSC /blip /delaunay /breath /chunks /blip_all /seq
;
#X obj 371 183 s osc_seq;
#X connect 0 0 8 0;
#X connect 3 0 0 0;
#X connect 3 1 1 0;
#X connect 8 0 2 0;
#X connect 8 1 4 0;
#X connect 8 2 5 0;
#X connect 8 3 6 0;
#X connect 8 4 7 0;
#X connect 8 5 9 0;
