#N canvas 80 36 1200 720 10;
#X obj 75 334 r~ blip_r;
#X obj 9 334 r~ blip_l;
#X obj 9 368 *~;
#X obj 132 372 *~;
#X obj 143 332 d-smooth~;
#X obj 186 69 vsl 15 128 0 1 0 0 empty empty empty 0 -9 0 10 -262144
-1 -1 7620 1;
#X msg 186 44 0.6;
#X obj 320 1 loadbang;
#X obj 299 388 *~;
#X obj 422 392 *~;
#X obj 433 328 d-smooth~;
#X obj 252 336 r~ delaunay_l;
#X obj 342 336 r~ delaunay_r;
#X obj 276 69 vsl 15 128 0 1 0 0 empty empty empty 0 -9 0 10 -262144
-1 -1 12700 1;
#X text 275 198 delaunay;
#X text 191 199 blip;
#X text 115 129 Volumes;
#X obj 9 558 *~;
#X obj 132 562 *~;
#X obj 197 493 d-smooth~;
#X obj 2 516 r~ background_l;
#X obj 103 516 r~ background_r;
#X obj 495 69 vsl 15 128 0 1 0 0 empty empty empty 0 -9 0 10 -262144
-1 -1 25 1;
#X text 495 199 background;
#X floatatom 174 221 5 0 0 0 - - -;
#X floatatom 271 216 5 0 0 0 - - -;
#X floatatom 481 217 5 0 0 0 - - -;
#X msg 276 44 1;
#X obj 213 89 vsl 12 96 0 1 0 0 empty empty empty 0 -9 0 10 -262144
-1 -1 95 1;
#X obj 303 89 vsl 12 96 0 1 0 0 empty empty empty 0 -9 0 10 -262144
-1 -1 2755 1;
#X obj 522 89 vsl 12 96 0 1 0 0 empty empty empty 0 -9 0 10 -262144
-1 -1 428 1;
#X obj 196 469 r background-lvl;
#X obj 506 239 s background-lvl;
#X obj 523 263 s background-fx;
#X obj 130 398 throw~ out-r;
#X obj 10 405 throw~ out-l;
#X obj 8 586 throw~ out-l;
#X obj 131 589 throw~ out-r;
#X obj 922 115 catch~ fx-l;
#X obj 997 115 catch~ fx-r;
#X obj 989 465 catch~ out-l;
#X obj 1112 470 catch~ out-r;
#X obj 433 308 r delaunay-lvl;
#X obj 272 251 s delaunay-lvl;
#X obj 284 270 s delaunay-fx;
#X obj 189 252 s blip-lvl;
#X obj 199 272 s blip-fx;
#X obj 144 309 r blip-lvl;
#X obj 41 560 *~;
#X obj 166 562 *~;
#X obj 227 533 d-smooth~;
#X obj 164 613 throw~ fx-r;
#X obj 39 609 throw~ fx-l;
#X obj 226 509 r background-fx;
#X obj 29 408 *~;
#X obj 151 416 *~;
#X obj 163 373 d-smooth~;
#X obj 163 352 r blip-fx;
#X obj 30 445 throw~ fx-l;
#X obj 150 438 throw~ fx-r;
#X obj 329 388 *~;
#X obj 452 392 *~;
#X obj 501 350 d-smooth~;
#X obj 502 329 r delaunay-fx;
#N canvas 327 88 711 665 fx 0;
#X obj 115 31 inlet~;
#X obj 189 26 inlet~;
#X obj 133 58 *~ 1;
#X obj 174 57 *~ 1;
#X obj 139 558 outlet~;
#X obj 245 559 outlet~;
#X obj 52 375 s~ fxfbl;
#X obj 111 379 s~ fxfbr;
#X obj 283 126 r~ fxfbl;
#X obj 424 133 r~ fxfbr;
#X obj 120 327 *~ 0.2;
#X obj 59 322 *~ 0.2;
#X obj 285 365 *~ 0.5;
#X obj 556 377 *~ 0.5;
#X obj 282 167 d-fbdelay~ 400 1.02 0.001 207 22050 0.7 0.01;
#X obj 59 163 d-reverb2-light~ 100 94;
#X connect 0 0 2 0;
#X connect 1 0 3 0;
#X connect 2 0 14 0;
#X connect 2 0 15 0;
#X connect 3 0 14 1;
#X connect 3 0 15 1;
#X connect 8 0 14 0;
#X connect 9 0 14 1;
#X connect 10 0 7 0;
#X connect 11 0 6 0;
#X connect 12 0 15 0;
#X connect 13 0 15 1;
#X connect 14 0 4 0;
#X connect 14 0 12 0;
#X connect 14 1 5 0;
#X connect 14 1 13 0;
#X connect 15 0 4 0;
#X connect 15 0 11 0;
#X connect 15 1 5 0;
#X connect 15 1 10 0;
#X restore 922 154 pd fx;
#X obj 922 189 throw~ out-l;
#X obj 1002 189 throw~ out-r;
#X obj 301 415 throw~ out-l;
#X obj 332 445 throw~ fx-l;
#X obj 423 425 throw~ out-r;
#X obj 460 451 throw~ fx-r;
#X floatatom 223 194 5 0 0 0 - - -;
#X floatatom 323 195 5 0 0 0 - - -;
#X floatatom 557 193 5 0 0 0 - - -;
#X msg 301 64 0.29;
#X obj 989 598 d-out~;
#X obj 990 561 *~ 0.3;
#X obj 1113 563 *~ 0.3;
#X obj 349 588 *~;
#X obj 472 592 *~;
#X obj 483 528 d-smooth~;
#X obj 379 588 *~;
#X obj 502 592 *~;
#X obj 551 550 d-smooth~;
#X obj 351 615 throw~ out-l;
#X obj 382 645 throw~ fx-l;
#X obj 473 625 throw~ out-r;
#X obj 510 651 throw~ fx-r;
#X obj 302 536 r~ chunks_l;
#X obj 392 536 r~ chunks_r;
#X obj 483 508 r chunks-lvl;
#X obj 552 529 r chunks-fx;
#X obj 386 69 vsl 15 128 0 1 0 0 empty empty empty 0 -9 0 10 -262144
-1 -1 3810 1;
#X floatatom 381 216 5 0 0 0 - - -;
#X obj 413 89 vsl 12 96 0 1 0 0 empty empty empty 0 -9 0 10 -262144
-1 -1 950 1;
#X floatatom 433 195 5 0 0 0 - - -;
#X text 385 198 chunks;
#X obj 382 251 s chunks-lvl;
#X obj 394 270 s chunks-fx;
#X msg 411 64 0.1;
#X msg 386 44 0.3;
#X msg 520 68 0.045;
#X msg 495 44 0.002;
#X obj 1076 350 loadbang;
#X msg 1077 383 \; pd dsp 1;
#X obj 669 408 *~;
#X obj 752 402 *~;
#X obj 699 408 *~;
#X obj 782 402 *~;
#X obj 671 435 throw~ out-l;
#X obj 702 465 throw~ fx-l;
#X obj 753 435 throw~ out-r;
#X obj 790 461 throw~ fx-r;
#X obj 773 318 d-smooth~;
#X obj 841 340 d-smooth~;
#X obj 772 298 r seqcrackles-lvl;
#X obj 635 69 vsl 15 128 0 1 0 0 empty empty empty 0 -9 0 10 -262144
-1 -1 12700 1;
#X text 635 199 background;
#X floatatom 621 217 5 0 0 0 - - -;
#X obj 662 89 vsl 12 96 0 1 0 0 empty empty empty 0 -9 0 10 -262144
-1 -1 475 1;
#X floatatom 697 193 5 0 0 0 - - -;
#X obj 646 239 s seqcrackles-lvl;
#X obj 663 263 s seqcrackles-fx;
#X obj 843 319 r seqcrackles-fx;
#X obj 648 335 r~ seqcrackles_l;
#X obj 699 356 r~ seqcrackles_r;
#X msg 661 69 0.05;
#X msg 210 67 0.01;
#X msg 636 44 0.5;
#X connect 0 0 3 0;
#X connect 0 0 55 0;
#X connect 1 0 2 0;
#X connect 1 0 54 0;
#X connect 2 0 35 0;
#X connect 3 0 34 0;
#X connect 4 0 3 1;
#X connect 4 0 2 1;
#X connect 5 0 24 0;
#X connect 5 0 45 0;
#X connect 6 0 5 0;
#X connect 7 0 6 0;
#X connect 7 0 27 0;
#X connect 7 0 102 0;
#X connect 7 0 74 0;
#X connect 7 0 101 0;
#X connect 7 0 127 0;
#X connect 7 0 100 0;
#X connect 7 0 99 0;
#X connect 7 0 128 0;
#X connect 7 0 126 0;
#X connect 8 0 67 0;
#X connect 9 0 69 0;
#X connect 10 0 9 1;
#X connect 10 0 8 1;
#X connect 11 0 8 0;
#X connect 11 0 60 0;
#X connect 12 0 9 0;
#X connect 12 0 61 0;
#X connect 13 0 25 0;
#X connect 13 0 43 0;
#X connect 17 0 36 0;
#X connect 18 0 37 0;
#X connect 19 0 18 1;
#X connect 19 0 17 1;
#X connect 20 0 17 0;
#X connect 20 0 48 0;
#X connect 21 0 18 0;
#X connect 21 0 49 0;
#X connect 22 0 26 0;
#X connect 22 0 32 0;
#X connect 27 0 13 0;
#X connect 28 0 46 0;
#X connect 28 0 71 0;
#X connect 29 0 44 0;
#X connect 29 0 72 0;
#X connect 30 0 33 0;
#X connect 30 0 73 0;
#X connect 31 0 19 0;
#X connect 38 0 64 0;
#X connect 39 0 64 1;
#X connect 40 0 76 0;
#X connect 41 0 77 0;
#X connect 42 0 10 0;
#X connect 47 0 4 0;
#X connect 48 0 52 0;
#X connect 49 0 51 0;
#X connect 50 0 49 1;
#X connect 50 0 48 1;
#X connect 53 0 50 0;
#X connect 54 0 58 0;
#X connect 55 0 59 0;
#X connect 56 0 55 1;
#X connect 56 0 54 1;
#X connect 57 0 56 0;
#X connect 60 0 68 0;
#X connect 61 0 70 0;
#X connect 62 0 61 1;
#X connect 62 0 60 1;
#X connect 63 0 62 0;
#X connect 64 0 65 0;
#X connect 64 1 66 0;
#X connect 74 0 29 0;
#X connect 76 0 75 0;
#X connect 77 0 75 1;
#X connect 78 0 84 0;
#X connect 79 0 86 0;
#X connect 80 0 79 1;
#X connect 80 0 78 1;
#X connect 81 0 85 0;
#X connect 82 0 87 0;
#X connect 83 0 82 1;
#X connect 83 0 81 1;
#X connect 88 0 78 0;
#X connect 88 0 81 0;
#X connect 89 0 79 0;
#X connect 89 0 82 0;
#X connect 90 0 80 0;
#X connect 91 0 83 0;
#X connect 92 0 93 0;
#X connect 92 0 97 0;
#X connect 94 0 95 0;
#X connect 94 0 98 0;
#X connect 99 0 94 0;
#X connect 100 0 92 0;
#X connect 101 0 30 0;
#X connect 102 0 22 0;
#X connect 103 0 104 0;
#X connect 105 0 109 0;
#X connect 106 0 111 0;
#X connect 107 0 110 0;
#X connect 108 0 112 0;
#X connect 113 0 105 1;
#X connect 113 0 106 1;
#X connect 114 0 107 1;
#X connect 114 0 108 1;
#X connect 115 0 113 0;
#X connect 116 0 118 0;
#X connect 116 0 121 0;
#X connect 119 0 120 0;
#X connect 119 0 122 0;
#X connect 123 0 114 0;
#X connect 124 0 105 0;
#X connect 124 0 107 0;
#X connect 125 0 106 0;
#X connect 125 0 108 0;
#X connect 126 0 119 0;
#X connect 127 0 28 0;
#X connect 128 0 116 0;
