#N canvas 348 304 634 432 10;
#N canvas 333 100 584 558 markov 0;
#X obj 107 198 list-wrandom;
#X obj 107 237 sel 0 1 2 3;
#X text 60 303 state 0;
#X obj 346 448 s \$0-nextstate;
#X obj 17 95 r \$0-nextstate;
#X obj 176 160 loadbang;
#X obj 168 448 outlet;
#X obj 78 332 _states/binkonce;
#X floatatom 258 258 5 0 0 0 - - -;
#X obj 258 239 bng 15 250 50 0 empty empty empty 17 7 0 10 -262144
-1 -1;
#X obj 208 332 _states/binktwice;
#X obj 107 12 inlet;
#X obj 107 35 route start stop;
#X obj 107 160 spigot;
#X obj 107 66 t b b;
#X msg 134 114 1;
#X msg 153 134 0;
#X text 212 309 state 1;
#X text 362 309 state 1;
#X obj 358 332 _states/binkthrice;
#X msg 176 179 1.2 1 1;
#X connect 0 0 1 0;
#X connect 0 0 8 0;
#X connect 0 0 9 0;
#X connect 1 0 7 0;
#X connect 1 1 10 0;
#X connect 1 2 19 0;
#X connect 4 0 13 0;
#X connect 5 0 20 0;
#X connect 7 0 6 0;
#X connect 7 1 3 0;
#X connect 10 0 6 0;
#X connect 10 1 3 0;
#X connect 11 0 12 0;
#X connect 12 0 14 0;
#X connect 12 1 16 0;
#X connect 13 0 0 0;
#X connect 14 0 13 0;
#X connect 14 1 15 0;
#X connect 15 0 13 1;
#X connect 16 0 13 1;
#X connect 19 0 6 0;
#X connect 19 1 3 0;
#X connect 20 0 0 1;
#X restore 263 96 pd markov;
#X obj 263 222 _bink;
#X obj 379 297 _serial;
#X obj 197 307 d-out~;
#X obj 263 138 route bink;
#X obj 263 165 _unpackbinkcmd;
#X obj 309 198 print;
#X obj 236 39 bng 30 250 50 0 empty empty empty 17 7 0 10 -4034 -1
-1;
#X obj 286 39 bng 30 250 50 0 empty empty empty 17 7 0 10 -258113 -1
-1;
#X msg 286 74 stop;
#X msg 236 74 start;
#X obj 480 140 vsl 15 128 0 1 0 0 empty empty empty 0 -9 0 10 -262144
-1 -1 6934 1;
#X msg 100 192 pitchmul \$1;
#X obj 73 -4 vsl 15 128 0 2 0 0 empty empty empty 0 -9 0 10 -262144
-1 -1 1300 1;
#X floatatom 71 157 5 0 0 0 - - -;
#X obj 101 -3 vsl 15 128 0 2 0 0 empty empty empty 0 -9 0 10 -262144
-1 -1 10800 1;
#X floatatom 111 157 5 0 0 0 - - -;
#X obj 154 159 s timemul;
#X connect 0 0 4 0;
#X connect 1 0 3 0;
#X connect 1 0 3 1;
#X connect 1 1 2 1;
#X connect 1 1 11 0;
#X connect 4 0 5 0;
#X connect 5 0 1 0;
#X connect 5 0 6 0;
#X connect 7 0 10 0;
#X connect 8 0 9 0;
#X connect 9 0 0 0;
#X connect 10 0 0 0;
#X connect 12 0 1 0;
#X connect 13 0 14 0;
#X connect 13 0 12 0;
#X connect 15 0 16 0;
#X connect 15 0 17 0;
