#N canvas 353 92 835 555 10;
#X obj 129 333 d-out~;
#X msg 252 146 bang;
#X obj 252 221 _bink;
#X obj 315 448 _serial;
#X msg 252 194 level 1 \, release 10 \, pitch 2000 \, trigger;
#X msg 387 239 bang;
#X floatatom 416 311 5 0 0 0 - - -;
#X obj 387 217 route trigger;
#X obj 440 261 - 10;
#X obj 353 43 vsl 15 128 70 7000 1 0 empty empty empty 0 -9 0 10 -262144
-1 -1 0 1;
#X obj 387 261 f 200;
#X msg 476 286 200;
#X obj 476 262 moses 0;
#X obj 354 311 pipe 0;
#X msg 159 127 stop;
#X obj 252 169 metro 7000;
#X connect 1 0 15 0;
#X connect 2 0 0 0;
#X connect 2 0 0 1;
#X connect 2 1 13 0;
#X connect 4 0 2 0;
#X connect 4 0 7 0;
#X connect 5 0 10 0;
#X connect 7 0 5 0;
#X connect 8 0 12 0;
#X connect 9 0 15 1;
#X connect 10 0 6 0;
#X connect 10 0 8 0;
#X connect 11 0 10 1;
#X connect 12 0 11 0;
#X connect 12 1 10 1;
#X connect 13 0 3 1;
#X connect 14 0 15 0;
#X connect 15 0 4 0;
