#N canvas 78 41 835 555 10;
#X obj 159 443 d-out~;
#X msg 292 139 bang;
#X obj 162 397 _bink;
#X obj 415 527 _serial;
#X obj 533 13 vsl 15 128 50 5000 1 0 empty empty empty 0 -9 0 10 -262144
-1 -1 0 1;
#X msg 162 374 level 1 \, release 10 \, pitch 200 \, trigger;
#X obj 292 159 metro 491;
#X obj 431 496 _bink;
#X obj 302 337 delay 0;
#X obj 361 337 delay 0;
#X obj 381 228 sel 0;
#X obj 381 254 tgl 15 0 empty empty empty 17 7 0 10 -262144 -1 -1 0
1;
#X obj 430 254 tgl 15 0 empty empty empty 17 7 0 10 -262144 -1 -1 0
1;
#X obj 430 228 sel 1;
#X floatatom 565 142 5 0 0 0 - - -;
#X obj 560 248 / 2;
#X obj 381 302 * 245.5;
#X obj 430 302 * 245.5;
#X obj 381 205 random 100;
#X obj 533 218 t b a;
#X obj 381 275 f;
#X obj 430 275 f;
#X obj 292 179 bang;
#X obj 430 340 d-osc 0.1;
#X obj 429 364 * 0.5;
#X obj 430 391 + 1.02;
#X obj 417 442 f;
#X msg 431 471 level 1 \, attack 2 \, ontime 2 \, release \$1 \, trigger
;
#X obj 430 411 * 50;
#X connect 1 0 6 0;
#X connect 2 0 0 0;
#X connect 2 0 0 1;
#X connect 4 0 6 1;
#X connect 4 0 14 0;
#X connect 4 0 19 0;
#X connect 5 0 2 0;
#X connect 6 0 22 0;
#X connect 7 1 3 1;
#X connect 8 0 5 0;
#X connect 9 0 26 0;
#X connect 10 0 11 0;
#X connect 11 0 20 0;
#X connect 12 0 21 0;
#X connect 13 0 12 0;
#X connect 15 0 16 1;
#X connect 15 0 17 1;
#X connect 16 0 8 1;
#X connect 17 0 9 1;
#X connect 18 0 10 0;
#X connect 18 0 13 0;
#X connect 19 0 21 0;
#X connect 19 0 20 0;
#X connect 19 1 15 0;
#X connect 20 0 16 0;
#X connect 21 0 17 0;
#X connect 22 0 9 0;
#X connect 22 0 8 0;
#X connect 22 0 18 0;
#X connect 23 0 24 0;
#X connect 24 0 25 0;
#X connect 25 0 28 0;
#X connect 26 0 27 0;
#X connect 27 0 7 0;
#X connect 28 0 26 1;
