#N canvas 505 240 543 463 10;
#X obj 411 112 notein 1;
#X obj 417 295 _serial;
#X obj 124 315 _bink;
#X obj 456 202 / 127;
#X obj 87 64 notein 2;
#X obj 87 118 mtof;
#X obj 132 118 / 127;
#X msg 87 211 pitch \$1;
#X obj 132 153 sel 0;
#X msg 159 210 level \$1 \, on;
#X msg 132 245 off;
#X obj 104 363 d-out~;
#X obj 11 230 loadbang;
#X obj 203 70 notein 3;
#X obj 221 238 noise~;
#X obj 252 274 *~;
#X obj 313 214 d-smooth~;
#X obj 248 101 / 127;
#X obj 250 306 *~ 1;
#X obj 281 245 +~ 0;
#X msg 19 274 release 10 \, attack 10 \, baseline 0;
#X connect 0 1 3 0;
#X connect 2 0 11 0;
#X connect 2 0 11 1;
#X connect 3 0 1 1;
#X connect 4 0 5 0;
#X connect 4 1 6 0;
#X connect 5 0 7 0;
#X connect 6 0 8 0;
#X connect 7 0 2 0;
#X connect 8 0 10 0;
#X connect 8 1 9 0;
#X connect 9 0 2 0;
#X connect 10 0 2 0;
#X connect 12 0 20 0;
#X connect 13 1 17 0;
#X connect 14 0 15 0;
#X connect 16 0 19 0;
#X connect 17 0 16 0;
#X connect 18 0 11 0;
#X connect 18 0 11 1;
#X connect 19 0 15 1;
#X connect 20 0 2 0;
