#N canvas 428 89 533 649 10;
#X obj 305 404 _serial;
#X obj 123 445 _bink;
#X obj 104 493 d-out~;
#X obj 11 360 loadbang;
#X msg 5 396 release 10 \, attack 10 \, baseline 0 \, pitch 87.3;
#X obj 128 131 del 2167;
#X msg 123 296 on;
#X msg 151 296 off;
#X obj 123 8 bng 15 250 50 0 empty empty empty 17 7 0 10 -262144 -1
-1;
#X obj 181 281 tgl 15 0 empty empty empty 17 7 0 10 -262144 -1 -1 0
1;
#X msg 344 355 0;
#X obj 291 274 del 500;
#X obj 347 274 del 500;
#X obj 111 254 del 500;
#X obj 167 254 del 500;
#X obj 324 307 tgl 15 0 empty empty empty 17 7 0 10 -262144 -1 -1 0
1;
#X obj 284 146 sel 0 1 2 3;
#X msg 367 214 500;
#X msg 395 214 0;
#X msg 424 214 1000;
#X msg 273 214 500;
#X msg 301 214 0;
#X msg 329 214 1000;
#X msg 163 214 500;
#X msg 195 214 0;
#X msg 229 214 1000;
#X msg 53 214 500;
#X msg 85 214 0;
#X msg 119 214 1000;
#X floatatom 393 148 5 0 0 0 - - -;
#X obj 123 53 t b b;
#X obj 123 30 metro 6500;
#X obj 284 118 int;
#X obj 284 92 d-random-sq 0 4;
#X obj 389 367 * 255;
#X obj 388 390 int;
#X floatatom 390 416 5 0 0 0 - - -;
#X msg 295 355 0.04;
#X connect 1 0 2 0;
#X connect 1 0 2 1;
#X connect 3 0 4 0;
#X connect 4 0 1 0;
#X connect 5 0 12 0;
#X connect 5 0 14 0;
#X connect 6 0 1 0;
#X connect 7 0 1 0;
#X connect 8 0 31 0;
#X connect 10 0 0 1;
#X connect 11 0 37 0;
#X connect 11 0 15 0;
#X connect 12 0 10 0;
#X connect 12 0 15 0;
#X connect 13 0 6 0;
#X connect 13 0 9 0;
#X connect 14 0 7 0;
#X connect 14 0 9 0;
#X connect 16 0 20 0;
#X connect 16 0 17 0;
#X connect 16 0 23 0;
#X connect 16 0 26 0;
#X connect 16 1 26 0;
#X connect 16 1 20 0;
#X connect 16 1 23 0;
#X connect 16 1 19 0;
#X connect 16 2 26 0;
#X connect 16 2 23 0;
#X connect 16 2 22 0;
#X connect 16 2 19 0;
#X connect 16 3 26 0;
#X connect 16 3 23 0;
#X connect 16 3 21 0;
#X connect 16 3 17 0;
#X connect 17 0 12 1;
#X connect 18 0 12 1;
#X connect 19 0 12 1;
#X connect 20 0 11 1;
#X connect 21 0 11 1;
#X connect 22 0 11 1;
#X connect 23 0 14 1;
#X connect 24 0 14 1;
#X connect 25 0 14 1;
#X connect 26 0 13 1;
#X connect 27 0 13 1;
#X connect 28 0 13 1;
#X connect 30 0 5 0;
#X connect 30 0 11 0;
#X connect 30 0 13 0;
#X connect 30 1 33 0;
#X connect 31 0 30 0;
#X connect 32 0 16 0;
#X connect 33 0 29 0;
#X connect 33 0 32 0;
#X connect 34 0 35 0;
#X connect 35 0 36 0;
#X connect 37 0 0 1;
#X connect 37 0 34 0;
