#N canvas 189 70 862 565 10;
#X obj 59 363 d-out~;
#X obj 182 251 _bink;
#X obj 245 478 _serial;
#X msg 182 224 level 1 \, release 10 \, pitch 2000 \, trigger;
#X msg 317 269 bang;
#X floatatom 346 341 5 0 0 0 - - -;
#X obj 317 247 route trigger;
#X obj 370 291 - 10;
#X obj 317 291 f 200;
#X msg 406 316 200;
#X obj 406 292 moses 0;
#X obj 284 341 pipe 0;
#X msg 284 415 3 \$1;
#X obj 459 244 _bink;
#X msg 486 338 1 \$1;
#X obj 596 368 * 255;
#X obj 601 405 int;
#X floatatom 595 447 5 0 0 0 - - -;
#X floatatom 598 300 5 0 0 0 - - -;
#X obj 595 328 / 10;
#X obj 486 307 min 0.07;
#X msg 459 210 level 1 \, attack 50 \, release 800 \, ontime 100 \,
pitch 400 \, trigger;
#X obj 459 265 *~ 0.1;
#X msg 194 151 bang;
#X msg 182 59 bang;
#X obj 436 207 bng 15 250 50 0 empty empty empty 17 7 0 10 -262144
-1 -1;
#X obj 156 189 bng 15 250 50 0 empty empty empty 17 7 0 10 -262144
-1 -1;
#X msg 76 43 stop;
#X floatatom 252 133 8 0 0 0 - - -;
#X obj 182 129 metro 7500;
#X obj 459 188 del 5000;
#X connect 1 0 0 0;
#X connect 1 0 0 1;
#X connect 1 1 11 0;
#X connect 3 0 1 0;
#X connect 3 0 6 0;
#X connect 4 0 8 0;
#X connect 6 0 4 0;
#X connect 7 0 10 0;
#X connect 8 0 5 0;
#X connect 8 0 7 0;
#X connect 9 0 8 1;
#X connect 10 0 9 0;
#X connect 10 1 8 1;
#X connect 11 0 12 0;
#X connect 12 0 2 2;
#X connect 13 0 22 0;
#X connect 13 1 20 0;
#X connect 14 0 2 2;
#X connect 15 0 16 0;
#X connect 16 0 17 0;
#X connect 18 0 19 0;
#X connect 19 0 15 0;
#X connect 20 0 14 0;
#X connect 21 0 13 0;
#X connect 22 0 0 1;
#X connect 22 0 0 0;
#X connect 23 0 30 0;
#X connect 24 0 29 0;
#X connect 27 0 29 0;
#X connect 29 0 3 0;
#X connect 29 0 23 0;
#X connect 29 0 26 0;
#X connect 30 0 21 0;
#X connect 30 0 25 0;
