#N canvas 351 33 845 691 10;
#X obj 59 393 d-out~;
#X obj 182 281 _bink;
#X msg 317 299 bang;
#X floatatom 346 371 5 0 0 0 - - -;
#X obj 317 277 route trigger;
#X obj 370 321 - 10;
#X obj 317 321 f 200;
#X msg 406 346 200;
#X obj 406 322 moses 0;
#X msg 284 445 3 \$1;
#X obj 459 274 _bink;
#X msg 486 368 1 \$1;
#X obj 486 337 min 0.07;
#X obj 547 40 t b b;
#X obj 547 87 del 5000;
#X obj 547 115 t b b;
#X obj 547 156 del 2500;
#X msg 511 10 bang;
#X obj 515 99 bng 15 250 50 0 empty empty empty 17 7 0 10 -262144 -1
-1;
#X obj 543 181 bng 15 250 50 0 empty empty empty 17 7 0 10 -262144
-1 -1;
#X obj 106 212 r biglight;
#X obj 371 218 r smalllight;
#X obj 474 115 s smalllight;
#X obj 586 180 s biglight;
#X obj 586 61 d-random 6500 11500;
#X obj 577 136 d-random 750 3000;
#X obj 459 295 *~ 0.05;
#X msg 236 443 0.5;
#X msg 237 406 0;
#X text 221 383 all;
#X obj 212 129 d-808bd~;
#X obj 205 47 loadbang;
#X msg 107 52 trigger;
#X obj 82 2 r biglight;
#X obj 284 371 pipe 40;
#X obj 244 648 _serial_new;
#X obj 581 413 del 100;
#X obj 581 446 t b b;
#X obj 651 482 d-random 0 1;
#X obj 530 538 sel 3;
#X obj 557 597 pack f f;
#X obj 561 380 t b b;
#X obj 562 347 bng 15 250 50 0 empty empty empty 17 7 0 10 -262144
-1 -1;
#X obj 530 513 int;
#X obj 622 380 d-random 10 100;
#X obj 651 531 * 1;
#X msg 464 592 \$1 0;
#X obj 465 567 pipe 30;
#X msg 182 254 level 1 \, release 10 \, pitch 150 \, trigger;
#X msg 459 240 level 1 \, attack 50 \, release 800 \, ontime 100 \,
pitch 1800 \, trigger;
#X msg 183 82 decay 0.2 \, gain 0.9 \, click 0.1 \, tune 0.975;
#X obj 530 482 d-random 0 15.999;
#X obj 635 574 * 0.15;
#X connect 1 1 34 0;
#X connect 2 0 6 0;
#X connect 4 0 2 0;
#X connect 5 0 8 0;
#X connect 6 0 3 0;
#X connect 6 0 5 0;
#X connect 7 0 6 1;
#X connect 8 0 7 0;
#X connect 8 1 6 1;
#X connect 9 0 35 1;
#X connect 10 0 26 0;
#X connect 10 1 12 0;
#X connect 12 0 11 0;
#X connect 12 0 45 1;
#X connect 13 0 14 0;
#X connect 13 1 24 0;
#X connect 14 0 15 0;
#X connect 14 0 18 0;
#X connect 14 0 22 0;
#X connect 15 0 16 0;
#X connect 15 1 25 0;
#X connect 16 0 19 0;
#X connect 16 0 23 0;
#X connect 16 0 17 0;
#X connect 17 0 13 0;
#X connect 20 0 48 0;
#X connect 21 0 49 0;
#X connect 24 0 14 1;
#X connect 25 0 16 1;
#X connect 26 0 0 1;
#X connect 26 0 0 0;
#X connect 27 0 35 0;
#X connect 28 0 35 0;
#X connect 30 0 0 0;
#X connect 30 0 0 1;
#X connect 31 0 50 0;
#X connect 32 0 30 0;
#X connect 33 0 32 0;
#X connect 34 0 9 0;
#X connect 36 0 37 0;
#X connect 37 0 41 0;
#X connect 37 0 44 0;
#X connect 37 0 51 0;
#X connect 37 1 38 0;
#X connect 38 0 45 0;
#X connect 39 1 40 0;
#X connect 39 1 47 0;
#X connect 40 0 35 1;
#X connect 41 0 36 0;
#X connect 41 1 44 0;
#X connect 42 0 41 0;
#X connect 43 0 39 0;
#X connect 44 0 36 1;
#X connect 45 0 52 0;
#X connect 46 0 35 1;
#X connect 47 0 46 0;
#X connect 48 0 1 0;
#X connect 48 0 4 0;
#X connect 49 0 10 0;
#X connect 50 0 30 0;
#X connect 51 0 43 0;
#X connect 52 0 40 1;
