#N canvas 570 92 554 511 10;
#X obj 119 483 outlet~;
#X obj 119 402 *~;
#X msg 168 197 1;
#X msg 198 197 0;
#X obj 119 266 osc~ 440;
#X obj 198 162 del 50;
#X msg 179 126 bang;
#X obj 333 384 outlet;
#X obj 197 296 *~;
#X obj 49 14 inlet;
#X obj 94 186 * 1;
#X obj 94 229 d-smooth~ 2;
#X obj 48 364 *~;
#X obj 63 343 d-smooth~;
#X obj 63 319 d-inv;
#X floatatom 19 400 10 0 0 0 - - -;
#X obj 333 171 * 1;
#X obj 94 65 route pitch trigger level release attack ontime;
#X obj 63 294 / 2;
#X obj 198 269 d-adsr3~ 1 3 0 1 1000 1;
#X obj 48 267 phasor~ 440;
#X obj 118 17 loadbang;
#X msg 118 41 pitch 440 \, level 1 \, release 1000 \, attack 10 \,
ontime 50;
#X obj 333 306 * 1;
#X obj 348 133 r timemul;
#X obj 373 91 route pitchmul on off baseline;
#X obj 197 367 +~ 0;
#X obj 197 344 *~ 1;
#X obj 224 321 d-1-;
#X obj 274 297 f;
#X connect 1 0 0 0;
#X connect 2 0 19 0;
#X connect 3 0 19 0;
#X connect 4 0 1 0;
#X connect 5 0 3 0;
#X connect 6 0 2 0;
#X connect 6 0 5 0;
#X connect 8 0 27 0;
#X connect 9 0 17 0;
#X connect 10 0 11 0;
#X connect 10 0 18 0;
#X connect 11 0 4 0;
#X connect 11 0 20 0;
#X connect 12 0 1 0;
#X connect 13 0 12 1;
#X connect 14 0 13 0;
#X connect 14 0 15 0;
#X connect 16 0 19 5;
#X connect 17 0 10 0;
#X connect 17 1 6 0;
#X connect 17 2 19 1;
#X connect 17 3 16 0;
#X connect 17 4 19 2;
#X connect 17 5 5 1;
#X connect 17 6 25 0;
#X connect 18 0 14 0;
#X connect 19 0 8 0;
#X connect 19 0 8 1;
#X connect 19 2 23 0;
#X connect 20 0 12 0;
#X connect 21 0 22 0;
#X connect 22 0 17 0;
#X connect 23 0 7 0;
#X connect 24 0 16 1;
#X connect 25 0 10 1;
#X connect 25 1 2 0;
#X connect 25 2 3 0;
#X connect 25 3 29 0;
#X connect 26 0 1 1;
#X connect 27 0 26 0;
#X connect 28 0 27 1;
#X connect 29 0 28 0;
#X connect 29 0 26 1;
