#N canvas 0 22 570 475 10;
#X obj 199 185 morse;
#X obj 141 65 r dotlength;
#X msg 96 67 stop;
#X msg 50 67 bang;
#X obj 197 212 bng 15 250 50 0 empty empty empty 17 7 0 10 -262144
-1 -1;
#X obj 214 212 bng 15 250 50 0 empty empty empty 17 7 0 10 -262144
-1 -1;
#X obj 231 212 bng 15 250 50 0 empty empty empty 17 7 0 10 -262144
-1 -1;
#X obj 199 427 outlet;
#X obj 260 260 r dashlength;
#X obj 220 240 r dotlength;
#X obj 199 282 f 50;
#X obj 233 282 f 150;
#X obj 96 93 metro 50;
#X obj 279 207 del 50;
#X obj 312 148 r dotlength;
#X obj 50 15 inlet;
#X obj 266 325 d-random 0 3;
#X obj 199 128 list prepend msg;
#X obj 199 156 list trim;
#X obj 199 104 list;
#X obj 50 39 route start stop msg;
#X obj 256 357 d-random 0.6 0.8;
#X obj 312 182 * 6;
#X obj 199 324 pipe 0;
#X msg 199 393 level 1 \, pitch 906.25 \, ontime \$1 \, attack 1 \,
release 1 \, trigger;
#X obj 199 358 * 0.5;
#X connect 0 0 4 0;
#X connect 0 0 10 0;
#X connect 0 1 5 0;
#X connect 0 1 11 0;
#X connect 0 2 6 0;
#X connect 0 2 13 0;
#X connect 1 0 12 1;
#X connect 2 0 12 0;
#X connect 3 0 12 0;
#X connect 3 0 19 0;
#X connect 8 0 11 1;
#X connect 9 0 10 1;
#X connect 10 0 23 0;
#X connect 11 0 23 0;
#X connect 12 0 0 0;
#X connect 13 0 19 0;
#X connect 14 0 22 0;
#X connect 15 0 20 0;
#X connect 16 0 23 1;
#X connect 17 0 18 0;
#X connect 18 0 0 0;
#X connect 19 0 17 0;
#X connect 20 0 3 0;
#X connect 20 1 2 0;
#X connect 20 2 19 1;
#X connect 21 0 25 1;
#X connect 22 0 13 1;
#X connect 23 0 25 0;
#X connect 24 0 7 0;
#X connect 25 0 24 0;
