#N canvas 275 22 930 706 10;
#X obj 126 480 comport 1 57600;
#X floatatom 213 547 10 0 0 1 baud - -;
#X floatatom 294 588 3 0 0 3 parity - -;
#X floatatom 322 588 3 0 0 2 stop - -;
#X floatatom 349 587 3 0 0 3 data - -;
#X floatatom 431 549 3 0 0 0 port - -;
#X obj 376 553 tgl 15 0 empty empty rts/cts -10 20 1 11 -24198 -258699
-1 0 1;
#X obj 403 579 tgl 15 0 empty empty xon/xoff -14 20 1 11 -24198 -258699
-1 0 1;
#X text 152 587 serial packet format:;
#X text 302 550 handshaking:;
#X text 112 619 flow control inputs:;
#X obj 240 619 tgl 15 0 empty empty dsr 0 20 1 11 -24198 -258699 -1
0 1;
#X obj 267 619 tgl 15 0 empty empty cts 0 20 1 11 -24198 -258699 -1
0 1;
#X obj 458 548 tgl 15 0 empty empty open -6 20 1 11 -24198 -258699
-1 0 1;
#X obj 485 581 print port_list;
#X obj 554 540 print other;
#X obj 213 510 route baud dsr cts parity stop data rtscts xonxoff port
open ports hupcl;
#X obj 512 547 tgl 15 0 empty empty hupcl -6 20 1 11 -24198 -258699
-1 0 1;
#X obj 100 534 print in;
#X msg 111 240 48 \, 49 \, 50 \, 51 \, 52 \, 53 \, 54;
#X msg 129 268 48 \, 254 \, 254 \, 254 \, 254 \, 254 \, 254;
#X msg 70 453 close;
#X msg 343 254 48 \, \$1 \, \$1 \, \$1 \, \$1 \, \$1 \, \$1;
#X obj 343 36 inlet;
#X text 390 35 all;
#X obj 76 40 inlet;
#X text 115 41 individual (list);
#X obj 76 63 t a b;
#X msg 103 185 48;
#X obj 294 376 loadbang;
#X obj 126 363 pipe 57;
#X msg 338 412 devicename /dev/tty.usbserial-A5001abn;
#X msg 236 442 devicename /dev/tty.usbserial-A4001dI6;
#X obj 76 99 list-drip;
#X obj 76 209 t a;
#X obj 536 24 inlet;
#X obj 536 52 t b a;
#X obj 536 268 pack 48 0 0 0 0 0 0;
#X obj 536 293 list-drip;
#X text 748 47;
#X text 583 24 set a buffer value (<idx> <value>);
#X obj 467 196 unpack f f f f f f;
#X msg 536 169 48;
#X obj 563 149 route 0 1 2 3 4 5;
#X obj 563 77 unpack f f;
#X obj 563 121 pack f f;
#X obj 620 100 * 255;
#X obj 126 392 int;
#X obj 126 421 min 255;
#X obj 126 447 max 0;
#X obj 343 177 * 255;
#X obj 76 149 * 255;
#X text 93 4 ALL INPUTS 0..1;
#X connect 0 0 18 0;
#X connect 0 1 16 0;
#X connect 16 0 1 0;
#X connect 16 1 11 0;
#X connect 16 2 12 0;
#X connect 16 3 2 0;
#X connect 16 4 3 0;
#X connect 16 5 4 0;
#X connect 16 6 6 0;
#X connect 16 7 7 0;
#X connect 16 8 5 0;
#X connect 16 9 13 0;
#X connect 16 10 14 0;
#X connect 16 11 17 0;
#X connect 16 12 15 0;
#X connect 19 0 30 0;
#X connect 20 0 30 0;
#X connect 21 0 0 0;
#X connect 22 0 30 0;
#X connect 23 0 50 0;
#X connect 25 0 27 0;
#X connect 27 0 33 0;
#X connect 27 0 41 0;
#X connect 27 1 28 0;
#X connect 28 0 34 0;
#X connect 29 0 31 0;
#X connect 29 0 32 0;
#X connect 30 0 47 0;
#X connect 32 0 0 0;
#X connect 33 0 51 0;
#X connect 34 0 30 0;
#X connect 35 0 36 0;
#X connect 36 0 42 0;
#X connect 36 1 44 0;
#X connect 37 0 38 0;
#X connect 38 0 30 0;
#X connect 41 0 37 1;
#X connect 41 1 37 2;
#X connect 41 2 37 3;
#X connect 41 3 37 4;
#X connect 41 4 37 5;
#X connect 41 5 37 6;
#X connect 42 0 37 0;
#X connect 43 0 37 1;
#X connect 43 1 37 2;
#X connect 43 2 37 3;
#X connect 43 3 37 4;
#X connect 43 4 37 5;
#X connect 43 5 37 6;
#X connect 44 0 45 0;
#X connect 44 1 46 0;
#X connect 45 0 43 0;
#X connect 46 0 45 1;
#X connect 47 0 48 0;
#X connect 48 0 49 0;
#X connect 49 0 0 0;
#X connect 50 0 22 0;
#X connect 50 0 37 1;
#X connect 50 0 37 2;
#X connect 50 0 37 3;
#X connect 50 0 37 4;
#X connect 50 0 37 5;
#X connect 50 0 37 6;
#X connect 51 0 34 0;
