#N canvas 275 22 930 706 10;
#X floatatom 213 547 10 0 0 1 baud - -;
#X floatatom 294 588 3 0 0 3 parity - -;
#X floatatom 322 588 3 0 0 2 stop - -;
#X floatatom 349 587 3 0 0 3 data - -;
#X floatatom 431 549 3 0 0 0 port - -;
#X obj 376 553 tgl 15 0 empty empty rts/cts -10 20 1 11 -24198 -258699
-1 0 1;
#X obj 403 579 tgl 15 0 empty empty xon/xoff -14 20 1 11 -24198 -258699
-1 0 1;
#X text 152 587 serial packet format:;
#X text 302 550 handshaking:;
#X text 112 619 flow control inputs:;
#X obj 240 619 tgl 15 0 empty empty dsr 0 20 1 11 -24198 -258699 -1
0 1;
#X obj 267 619 tgl 15 0 empty empty cts 0 20 1 11 -24198 -258699 -1
0 1;
#X obj 458 548 tgl 15 0 empty empty open -6 20 1 11 -24198 -258699
-1 0 1;
#X obj 485 581 print port_list;
#X obj 554 540 print other;
#X obj 213 510 route baud dsr cts parity stop data rtscts xonxoff port
open ports hupcl;
#X obj 512 547 tgl 15 0 empty empty hupcl -6 20 1 11 -24198 -258699
-1 0 1;
#X obj 100 534 print in;
#X msg 70 453 close;
#X obj 343 36 inlet;
#X text 390 35 all;
#X text 115 41 individual (list);
#X obj 76 63 t a b;
#X msg 103 185 48;
#X obj 294 376 loadbang;
#X obj 126 363 pipe 57;
#X msg 316 417 devicename /dev/tty.usbserial-A5001abn;
#X msg 236 442 devicename /dev/tty.usbserial-A4001dI6;
#X obj 76 99 list-drip;
#X obj 76 209 t a;
#X obj 126 392 int;
#X obj 126 421 min 255;
#X obj 126 447 max 0;
#X obj 76 149 * 255;
#X text 93 4 ALL INPUTS 0..1;
#X msg 517 446 devicename /dev/tty.usbserial-A5001aub;
#X obj 126 480 comport 1 9600;
#X obj 343 217 change;
#X text 394 56 0..255;
#X msg 343 254 1 \, \$1;
#X obj 573 20 inlet;
#X obj 571 51 unpack f f;
#X text 616 18 <id> <level 0..1>;
#X obj 627 87 * 4095;
#X obj 626 156 / 256;
#X obj 625 185 int;
#X obj 626 124 t f f;
#X obj 676 157 int;
#X obj 676 188 % 256;
#X obj 571 236 +;
#X obj 548 305 list-drip;
#X obj 551 270 pack 2 f f;
#X obj 545 87 t b a;
#X msg 541 201 2;
#X obj 571 121 << 4;
#X obj 343 177 * 255;
#X connect 15 0 0 0;
#X connect 15 1 10 0;
#X connect 15 2 11 0;
#X connect 15 3 1 0;
#X connect 15 4 2 0;
#X connect 15 5 3 0;
#X connect 15 6 5 0;
#X connect 15 7 6 0;
#X connect 15 8 4 0;
#X connect 15 9 12 0;
#X connect 15 10 13 0;
#X connect 15 11 16 0;
#X connect 15 12 14 0;
#X connect 18 0 36 0;
#X connect 19 0 55 0;
#X connect 22 0 28 0;
#X connect 22 1 23 0;
#X connect 23 0 29 0;
#X connect 24 0 26 0;
#X connect 24 0 35 0;
#X connect 25 0 30 0;
#X connect 27 0 36 0;
#X connect 28 0 33 0;
#X connect 30 0 31 0;
#X connect 31 0 32 0;
#X connect 32 0 36 0;
#X connect 33 0 29 0;
#X connect 35 0 36 0;
#X connect 36 1 15 0;
#X connect 37 0 39 0;
#X connect 39 0 25 0;
#X connect 40 0 41 0;
#X connect 41 0 52 0;
#X connect 41 1 43 0;
#X connect 43 0 46 0;
#X connect 44 0 45 0;
#X connect 45 0 49 1;
#X connect 46 0 44 0;
#X connect 46 1 47 0;
#X connect 47 0 48 0;
#X connect 48 0 51 2;
#X connect 49 0 51 1;
#X connect 50 0 25 0;
#X connect 51 0 50 0;
#X connect 52 0 53 0;
#X connect 52 1 54 0;
#X connect 53 0 51 0;
#X connect 54 0 49 0;
#X connect 55 0 37 0;
