#N canvas 372 89 836 555 10;
#X obj 490 299 line;
#X obj 541 205 del 5000;
#X obj 578 233 del 10000;
#X obj 639 264 del 15000;
#X obj 452 342 _serial;
#X msg 541 102 bang;
#X msg 578 263 0 5000;
#X msg 744 297 bang;
#X msg 482 175 1 5000;
#X msg 541 233 1;
#X msg 450 299 0;
#X connect 0 0 4 1;
#X connect 1 0 9 0;
#X connect 2 0 6 0;
#X connect 3 0 7 0;
#X connect 5 0 1 0;
#X connect 5 0 8 0;
#X connect 5 0 2 0;
#X connect 5 0 3 0;
#X connect 6 0 0 0;
#X connect 8 0 0 0;
#X connect 9 0 0 0;
