#N canvas 0 22 345 354 10;
#X obj 30 25 inlet;
#X obj 30 67 unpack f f f;
#X msg 132 185 release \$1;
#X obj 92 320 outlet;
#X msg 97 212 pitch \$1;
#X text 75 25 bink <level> <pitch> <release>;
#X obj 64 124 sel -1;
#X obj 99 98 sel -1;
#X obj 47 181 sel -1;
#X obj 30 145 t b a;
#X msg 80 237 level \$1;
#X msg 30 261 trigger;
#X connect 0 0 1 0;
#X connect 1 0 9 0;
#X connect 1 1 6 0;
#X connect 1 2 7 0;
#X connect 2 0 3 0;
#X connect 4 0 3 0;
#X connect 6 1 4 0;
#X connect 7 1 2 0;
#X connect 8 1 10 0;
#X connect 9 0 11 0;
#X connect 9 1 8 0;
#X connect 10 0 3 0;
#X connect 11 0 3 0;
